<?xml version="1.0" encoding="UTF-8"?>
<svg width="38px" height="38px" viewBox="0 0 38 38" version="1.1" xmlns="http://www.w3.org/2000/svg" xmlns:xlink="http://www.w3.org/1999/xlink">
    <title>podcast</title>
    <g id="Page-1" stroke="none" stroke-width="1" fill="none" fill-rule="evenodd">
        <g id="Desktop-HD-Copy" transform="translate(-828.000000, -1267.000000)" fill-rule="nonzero">
            <g id="podcast" transform="translate(828.000000, 1267.000000)">
                <path d="M30.2070312,38 L7.79296875,38 C3.49592578,38 0,34.5040742 0,30.2070312 L0,7.79296875 C0,3.49592578 3.49592578,0 7.79296875,0 L30.2070312,0 C34.5040742,0 38,3.49592578 38,7.79296875 L38,30.2070312 C38,34.5040742 34.5040742,38 30.2070312,38 Z" id="Path" fill="#CD67E5"></path>
                <path d="M22.9043086,25.6689162 L22.2154571,31.0824162 C22.0760229,32.1778865 21.1279886,33 20.00412,33 L17.9959543,33 C16.8720114,33 15.9239771,32.1778865 15.7846171,31.0823432 L15.0957657,25.6688432 C14.8021143,23.3619486 16.6332571,21.3243243 19,21.3243243 L19,21.3243243 C17.1567486,21.3243243 15.6571429,19.8512189 15.6571429,18.0405405 C15.6571429,16.2298622 17.1567486,14.7567568 19,14.7567568 C20.8432514,14.7567568 22.3428571,16.2298622 22.3428571,18.0405405 C22.3428571,19.8512189 20.8432514,21.3243243 19,21.3243243 L19,21.3243243 C21.3667429,21.3243243 23.1978857,23.3619486 22.9043086,25.6689162 Z M19,12.5675676 C15.5183029,12.5675676 12.6857143,15.3501 12.6857143,18.7702703 C12.6857143,20.0030027 13.0552114,21.1518892 13.6889429,22.1184892 C13.2334229,22.8788676 12.95292,23.7280541 12.8661543,24.6048973 C11.3759086,23.0935541 10.4571429,21.0354973 10.4571429,18.7702703 C10.4571429,14.1429811 14.2894686,10.3783784 19,10.3783784 C23.7105314,10.3783784 27.5428571,14.1429811 27.5428571,18.7702703 C27.5428571,21.0354973 26.6240914,23.0935541 25.13392,24.6048973 C25.0471543,23.7280541 24.7665771,22.8789405 24.3111314,22.1185622 C24.9447886,21.1518892 25.3142857,20.0030027 25.3142857,18.7702703 C25.3142857,15.3501 22.4816971,12.5675676 19,12.5675676 Z M24.5593943,30.3122595 L24.9023714,27.6167838 C27.8326457,25.7237919 29.7714286,22.4655486 29.7714286,18.7702703 C29.7714286,12.9358622 24.9393657,8.18918919 19,8.18918919 C13.0606343,8.18918919 8.22857143,12.9358622 8.22857143,18.7702703 C8.22857143,22.4655486 10.1673543,25.7237919 13.0976286,27.6167838 L13.4406057,30.3122595 C9.04601143,28.2613541 6,23.8589676 6,18.7702703 C6,11.7287432 11.8318,6 19,6 C26.1682,6 32,11.7287432 32,18.7702703 C32,23.8589676 28.9539886,28.2613541 24.5593943,30.3122595 Z" id="Shape" fill="#FFFFFF"></path>
                <g id="Group" transform="translate(19.000000, 6.000000)" fill="#F2F2F2">
                    <path d="M0,15.3243243 L0,15.3243243 L0,27 L1.00412,27 C2.12806286,27 3.07609714,26.1778865 3.21545714,25.0823432 L3.90430857,19.6688432 C4.19788571,17.3619486 2.36674286,15.3243243 0,15.3243243 Z" id="Path"></path>
                    <path d="M3.34285714,12.0405405 C3.34285714,10.2298622 1.84325143,8.75675676 0,8.75675676 L0,15.3243243 C1.84325143,15.3243243 3.34285714,13.8512189 3.34285714,12.0405405 Z" id="Path"></path>
                    <path d="M0,0 L0,2.18918919 C5.93936571,2.18918919 10.7714286,6.93586216 10.7714286,12.7702703 C10.7714286,16.4655486 8.83264571,19.7237919 5.90237143,21.6167838 L5.55939429,24.3122595 C9.95398857,22.2613541 13,17.8589676 13,12.7702703 C13,5.72874324 7.1682,0 0,0 Z" id="Path"></path>
                    <path d="M6.13392,18.6048973 C7.62409143,17.0935541 8.54285714,15.0354973 8.54285714,12.7702703 C8.54285714,8.14298108 4.71053143,4.37837838 0,4.37837838 L0,6.56756757 C3.48169714,6.56756757 6.31428571,9.3501 6.31428571,12.7702703 C6.31428571,14.0030027 5.94478857,15.1518892 5.31105714,16.1184892 C5.76657714,16.8789405 6.04715429,17.7280541 6.13392,18.6048973 Z" id="Path"></path>
                </g>
            </g>
        </g>
    </g>
</svg>