<?xml version="1.0" encoding="UTF-8"?>
<svg width="654px" height="309px" viewBox="0 0 654 309" version="1.1" xmlns="http://www.w3.org/2000/svg" xmlns:xlink="http://www.w3.org/1999/xlink">
    <!-- Generator: Sketch 55 (78076) - https://sketchapp.com -->
    <title>deferred_publisher</title>
    <desc>Created with Sketch.</desc>
    <defs>
        <radialGradient cx="36.2507156%" cy="27.4181659%" fx="36.2507156%" fy="27.4181659%" r="77.0742045%" gradientTransform="translate(0.362507,0.274182),scale(1.000000,0.999721),rotate(143.806919),translate(-0.362507,-0.274182)" id="radialGradient-1">
            <stop stop-color="#FFFFFF" offset="0%"></stop>
            <stop stop-color="#FF0000" offset="100%"></stop>
        </radialGradient>
        <radialGradient cx="36.2507156%" cy="27.4181659%" fx="36.2507156%" fy="27.4181659%" r="77.0742045%" gradientTransform="translate(0.362507,0.274182),scale(1.000000,0.999721),rotate(143.806919),translate(-0.362507,-0.274182)" id="radialGradient-2">
            <stop stop-color="#FFFFFF" offset="0%"></stop>
            <stop stop-color="#008000" offset="100%"></stop>
        </radialGradient>
        <radialGradient cx="36.2507156%" cy="27.4181659%" fx="36.2507156%" fy="27.4181659%" r="77.0742045%" gradientTransform="translate(0.362507,0.274182),scale(1.000000,0.999721),rotate(143.806919),translate(-0.362507,-0.274182)" id="radialGradient-3">
            <stop stop-color="#FFFFFF" offset="0%"></stop>
            <stop stop-color="#0000FF" offset="100%"></stop>
        </radialGradient>
    </defs>
    <g id="Page-2" stroke="none" stroke-width="1" fill="none" fill-rule="evenodd">
        <g id="Artboard-Copy-9" transform="translate(-10.000000, 0.000000)">
            <path id="path3003-copy" d="M411.833333,168.47347 L65.043122,168.47347 L65.043122,166.191846 L411.833333,166.191846 L411.833333,159.6286 L426.833333,167.332658 L411.833333,175.036716 L411.833333,168.47347 Z" fill="#000000" fill-rule="nonzero"></path>
            <path d="M233.549065,167.332658 C233.550842,173.703061 230.153293,179.590316 224.636658,182.77603 C219.120024,185.961745 212.322736,185.961745 206.806102,182.77603 C201.289467,179.590316 197.891918,173.703061 197.893695,167.332658 C197.891918,160.962255 201.289467,155.075 206.806102,151.889286 C212.322736,148.703571 219.120024,148.703571 224.636658,151.889286 C230.153293,155.075 233.550842,160.962255 233.549065,167.332658 Z" id="path4428-copy-2" stroke="#000000" stroke-width="2.7731958" fill="url(#radialGradient-1)" fill-rule="nonzero"></path>
            <path d="M215.72138,94.74264 L215,143.5" id="path5986-7-59" stroke="#000000" stroke-width="1.93039834" stroke-dasharray="5.7911949,5.7911949"></path>
            <path d="M280.592188,94.74264 L279.870808,143.5" id="path5986-7-59-copy" stroke="#000000" stroke-width="1.93039834" stroke-dasharray="5.7911949,5.7911949"></path>
            <path d="M334.465097,94.74264 L333.743717,143.5" id="path5986-7-59-copy-2" stroke="#000000" stroke-width="1.93039834" stroke-dasharray="5.7911949,5.7911949"></path>
            <rect id="rect4418" stroke="#000000" stroke-width="2.026" fill="#FFFFFF" fill-rule="nonzero" x="65.043122" y="29.5" width="394" height="58.015823"></rect>
            <text id="Deferred(" fill="#000000" font-family="Helvetica" font-size="20" font-weight="normal">
                <tspan x="93.6984942" y="65.5079115">Deferred(</tspan>
            </text>
            <text id=")" font-family="Helvetica" font-size="20" font-weight="normal" fill="#000000">
                <tspan x="402" y="66">)</tspan>
            </text>
            <path id="path3003-copy" d="M380.01981,62.4734696 L184.186477,62.4734696 L184.186477,60.1918464 L380.01981,60.1918464 L380.01981,53.6286002 L395.01981,61.332658 L380.01981,69.0367158 L380.01981,62.4734696 Z" fill="#000000" fill-rule="nonzero"></path>
            <path d="M239.335904,61.332658 C239.337681,67.7030608 235.940132,73.5903159 230.423497,76.7760302 C224.906863,79.9617446 218.109575,79.9617446 212.592941,76.7760302 C207.076306,73.5903159 203.678757,67.7030608 203.680534,61.332658 C203.678757,54.9622553 207.076306,49.0750001 212.592941,45.8892858 C218.109575,42.7035714 224.906863,42.7035714 230.423497,45.8892858 C235.940132,49.0750001 239.337681,54.9622553 239.335904,61.332658 Z" id="path4428-copy" stroke="#000000" stroke-width="2.7731958" fill="url(#radialGradient-1)" fill-rule="nonzero"></path>
            <path d="M297.698494,61.652808 C297.70027,68.0232108 294.302721,73.9104659 288.786086,77.0961802 C283.269452,80.2818946 276.472165,80.2818946 270.95553,77.0961802 C265.438895,73.9104659 262.041346,68.0232108 262.043123,61.652808 C262.041346,55.2824053 265.438895,49.3951501 270.95553,46.2094358 C276.472165,43.0237214 283.269452,43.0237214 288.786086,46.2094358 C294.302721,49.3951501 297.70027,55.2824053 297.698494,61.652808 Z" id="path4428-7" stroke="#000000" stroke-width="2.7731958" fill="url(#radialGradient-2)" fill-rule="nonzero"></path>
            <path d="M353.014162,61.332658 C353.015939,67.7030608 349.61839,73.5903159 344.101755,76.7760302 C338.585121,79.9617446 331.787833,79.9617446 326.271199,76.7760302 C320.754564,73.5903159 317.357015,67.7030608 317.358792,61.332658 C317.357015,54.9622553 320.754564,49.0750001 326.271199,45.8892858 C331.787833,42.7035714 338.585121,42.7035714 344.101755,45.8892858 C349.61839,49.0750001 353.015939,54.9622553 353.014162,61.332658 Z" id="path4428-7-3" stroke="#000000" stroke-width="2.7731958" fill="url(#radialGradient-3)" fill-rule="nonzero"></path>
            <path d="M297.698494,167.332658 C297.70027,173.703061 294.302721,179.590316 288.786086,182.77603 C283.269452,185.961745 276.472165,185.961745 270.95553,182.77603 C265.438895,179.590316 262.041346,173.703061 262.043123,167.332658 C262.041346,160.962255 265.438895,155.075 270.95553,151.889286 C276.472165,148.703571 283.269452,148.703571 288.786086,151.889286 C294.302721,155.075 297.70027,160.962255 297.698494,167.332658 Z" id="path4428-7-copy" stroke="#000000" stroke-width="2.7731958" fill="url(#radialGradient-2)" fill-rule="nonzero"></path>
            <path d="M356.061083,168.559475 C356.062859,174.929878 352.66531,180.817133 347.148675,184.002847 C341.632041,187.188562 334.834754,187.188562 329.318119,184.002847 C323.801484,180.817133 320.403935,174.929878 320.405712,168.559475 C320.403935,162.189072 323.801484,156.301817 329.318119,153.116103 C334.834754,149.930388 341.632041,149.930388 347.148675,153.116103 C352.66531,156.301817 356.062859,162.189072 356.061083,168.559475 Z" id="path4428-7-3-copy" stroke="#000000" stroke-width="2.7731958" fill="url(#radialGradient-3)" fill-rule="nonzero"></path>
            <path id="path3003-copy-2" d="M575.311772,270.73083 L228.521561,270.73083 L228.521561,268.449206 L575.311772,268.449206 L575.311772,261.88596 L590.311772,269.590018 L575.311772,277.294076 L575.311772,270.73083 Z" fill="#000000" fill-rule="nonzero"></path>
            <path d="M397.027504,269.590018 C397.029281,275.960421 393.631732,281.847676 388.115097,285.03339 C382.598463,288.219105 375.801175,288.219105 370.284541,285.03339 C364.767906,281.847676 361.370357,275.960421 361.372134,269.590018 C361.370357,263.219615 364.767906,257.33236 370.284541,254.146646 C375.801175,250.960931 382.598463,250.960931 388.115097,254.146646 C393.631732,257.33236 397.029281,263.219615 397.027504,269.590018 Z" id="path4428-copy-3" stroke="#000000" stroke-width="2.7731958" fill="url(#radialGradient-1)" fill-rule="nonzero"></path>
            <path d="M379.199819,197 L378.478439,245.75736" id="path5986-7-59-copy-5" stroke="#000000" stroke-width="1.93039834" stroke-dasharray="5.7911949,5.7911949"></path>
            <path d="M444.070627,197 L443.349247,245.75736" id="path5986-7-59-copy-4" stroke="#000000" stroke-width="1.93039834" stroke-dasharray="5.7911949,5.7911949"></path>
            <path d="M497.943536,197 L497.222156,245.75736" id="path5986-7-59-copy-3" stroke="#000000" stroke-width="1.93039834" stroke-dasharray="5.7911949,5.7911949"></path>
            <path d="M461.176933,269.590018 C461.178709,275.960421 457.78116,281.847676 452.264525,285.03339 C446.747891,288.219105 439.950604,288.219105 434.433969,285.03339 C428.917334,281.847676 425.519785,275.960421 425.521562,269.590018 C425.519785,263.219615 428.917334,257.33236 434.433969,254.146646 C439.950604,250.960931 446.747891,250.960931 452.264525,254.146646 C457.78116,257.33236 461.178709,263.219615 461.176933,269.590018 Z" id="path4428-7-copy-2" stroke="#000000" stroke-width="2.7731958" fill="url(#radialGradient-2)" fill-rule="nonzero"></path>
            <path d="M519.539522,270.816835 C519.541298,277.187238 516.143749,283.074493 510.627114,286.260207 C505.11048,289.445922 498.313193,289.445922 492.796558,286.260207 C487.279923,283.074493 483.882374,277.187238 483.884151,270.816835 C483.882374,264.446432 487.279923,258.559177 492.796558,255.373463 C498.313193,252.187748 505.11048,252.187748 510.627114,255.373463 C516.143749,258.559177 519.541298,264.446432 519.539522,270.816835 Z" id="path4428-7-3-copy-2" stroke="#000000" stroke-width="2.7731958" fill="url(#radialGradient-3)" fill-rule="nonzero"></path>
        </g>
    </g>
</svg>