<?xml version="1.0" encoding="UTF-8"?>
<svg width="518px" height="296px" viewBox="0 0 518 296" version="1.1" xmlns="http://www.w3.org/2000/svg" xmlns:xlink="http://www.w3.org/1999/xlink">
    <!-- Generator: Sketch 55 (78076) - https://sketchapp.com -->
    <title>op_contains</title>
    <desc>Created with Sketch.</desc>
    <defs>
        <radialGradient cx="36.2507156%" cy="27.4181659%" fx="36.2507156%" fy="27.4181659%" r="77.0742045%" gradientTransform="translate(0.362507,0.274182),scale(1.000000,0.999721),rotate(143.806919),translate(-0.362507,-0.274182)" id="radialGradient-1">
            <stop stop-color="#FFFFFF" offset="0%"></stop>
            <stop stop-color="#FF0000" offset="100%"></stop>
        </radialGradient>
        <radialGradient cx="36.2507156%" cy="27.4181659%" fx="36.2507156%" fy="27.4181659%" r="77.0742045%" gradientTransform="translate(0.362507,0.274182),scale(1.000000,0.999721),rotate(143.806919),translate(-0.362507,-0.274182)" id="radialGradient-2">
            <stop stop-color="#FFFFFF" offset="0%"></stop>
            <stop stop-color="#008000" offset="100%"></stop>
        </radialGradient>
        <radialGradient cx="36.2507156%" cy="27.4181659%" fx="36.2507156%" fy="27.4181659%" r="77.0742045%" gradientTransform="translate(0.362507,0.274182),scale(1.000000,0.999721),rotate(143.806919),translate(-0.362507,-0.274182)" id="radialGradient-3">
            <stop stop-color="#FFFFFF" offset="0%"></stop>
            <stop stop-color="#0000FF" offset="100%"></stop>
        </radialGradient>
        <radialGradient cx="35.416652%" cy="16.6665144%" fx="35.416652%" fy="16.6665144%" r="171.661232%" id="radialGradient-4">
            <stop stop-color="#FFFFFF" offset="0%"></stop>
            <stop stop-color="#FF0000" offset="47.045565%"></stop>
            <stop stop-color="#FF0000" offset="100%"></stop>
        </radialGradient>
        <radialGradient cx="36.2507156%" cy="27.4181659%" fx="36.2507156%" fy="27.4181659%" r="77.0742045%" gradientTransform="translate(0.362507,0.274182),scale(1.000000,0.999721),rotate(143.806919),translate(-0.362507,-0.274182)" id="radialGradient-5">
            <stop stop-color="#FFFFFF" offset="0%"></stop>
            <stop stop-color="#00FFFF" offset="100%"></stop>
        </radialGradient>
        <radialGradient cx="36.2507156%" cy="27.4181659%" fx="36.2507156%" fy="27.4181659%" r="77.0742045%" gradientTransform="translate(0.362507,0.274182),scale(1.000000,0.999721),rotate(143.806919),translate(-0.362507,-0.274182)" id="radialGradient-6">
            <stop stop-color="#FFFFFF" offset="0%"></stop>
            <stop stop-color="#FF00FF" offset="100%"></stop>
        </radialGradient>
    </defs>
    <g id="Page-2" stroke="none" stroke-width="1" fill="none" fill-rule="evenodd">
        <g id="Artboard-Copy-15" transform="translate(-24.000000, -5.000000)">
            <path id="path3003-copy" d="M466.833333,53.2982161 L73.008219,53.2982161 L73.008219,51.0165929 L466.833333,51.0165929 L466.833333,44.4533467 L481.833333,52.1574045 L466.833333,59.8614623 L466.833333,53.2982161 Z" fill="#000000" fill-rule="nonzero"></path>
            <path d="M147.743139,52.1574045 C147.744915,58.5278073 144.347366,64.4150624 138.830732,67.6007767 C133.314097,70.7864911 126.51681,70.7864911 121.000175,67.6007767 C115.48354,64.4150624 112.085991,58.5278073 112.087768,52.1574045 C112.085991,45.7870018 115.48354,39.8997466 121.000175,36.7140323 C126.51681,33.5283179 133.314097,33.5283179 138.830732,36.7140323 C144.347366,39.8997466 147.744915,45.7870018 147.743139,52.1574045 Z" id="path4428-copy-2" stroke="#000000" stroke-width="2.7731958" fill="url(#radialGradient-1)" fill-rule="nonzero"></path>
            <path d="M129.915453,69.9900625 L129.194073,118.747423" id="path5986-7-59" stroke="#000000" stroke-width="1.93039834" stroke-dasharray="5.7911949,5.7911949"></path>
            <path d="M185.199819,69.3717325 L184.478439,118.129093" id="path5986-7-59-copy" stroke="#000000" stroke-width="1.93039834" stroke-dasharray="5.7911949,5.7911949"></path>
            <path d="M240.86069,69.9900625 L240.13931,118.747423" id="path5986-7-59-copy-2" stroke="#000000" stroke-width="1.93039834" stroke-dasharray="5.7911949,5.7911949"></path>
            <path d="M296.415453,70.6083925 L295.694073,119.365753" id="path5986-7-59-copy-8" stroke="#000000" stroke-width="1.93039834" stroke-dasharray="5.7911949,5.7911949"></path>
            <path d="M241.636833,177.794409 L240.915453,226.551769" id="path5986-7-59-copy-9" stroke="#000000" stroke-width="1.93039834" stroke-dasharray="5.7911949,5.7911949"></path>
            <rect id="rect4418" stroke="#000000" stroke-width="2.026" fill="#FFFFFF" fill-rule="nonzero" x="70.8983132" y="120.602413" width="394" height="58.015823"></rect>
            <text id="contains-{-$0-==" fill="#000000" font-family="Helvetica" font-size="20" font-weight="normal">
                <tspan x="149.915453" y="155.580081">contains { $0 ==</tspan>
            </text>
            <text id="}" fill="#000000" font-family="Helvetica" font-size="20" font-weight="normal">
                <tspan x="359.416275" y="153.610324">}</tspan>
            </text>
            <path d="M203.243139,52.1574045 C203.244915,58.5278073 199.847366,64.4150624 194.330732,67.6007767 C188.814097,70.7864911 182.01681,70.7864911 176.500175,67.6007767 C170.98354,64.4150624 167.585991,58.5278073 167.587768,52.1574045 C167.585991,45.7870018 170.98354,39.8997466 176.500175,36.7140323 C182.01681,33.5283179 188.814097,33.5283179 194.330732,36.7140323 C199.847366,39.8997466 203.244915,45.7870018 203.243139,52.1574045 Z" id="path4428-7-copy" stroke="#000000" stroke-width="2.7731958" fill="url(#radialGradient-2)" fill-rule="nonzero"></path>
            <path d="M258.743139,52.1574045 C258.744915,58.5278073 255.347366,64.4150624 249.830732,67.6007767 C244.314097,70.7864911 237.51681,70.7864911 232.000175,67.6007767 C226.48354,64.4150624 223.085991,58.5278073 223.087768,52.1574045 C223.085991,45.7870018 226.48354,39.8997466 232.000175,36.7140323 C237.51681,33.5283179 244.314097,33.5283179 249.830732,36.7140323 C255.347366,39.8997466 258.744915,45.7870018 258.743139,52.1574045 Z" id="path4428-7-3-copy" stroke="#000000" stroke-width="2.7731958" fill="url(#radialGradient-3)" fill-rule="nonzero"></path>
            <path d="M344.960446,149.610324 C344.962223,155.980727 341.564674,161.867982 336.048039,165.053696 C330.531404,168.239411 323.734117,168.239411 318.217483,165.053696 C312.700848,161.867982 309.303299,155.980727 309.305075,149.610324 C309.303299,143.239921 312.700848,137.352666 318.217483,134.166952 C323.734117,130.981237 330.531404,130.981237 336.048039,134.166952 C341.564674,137.352666 344.962223,143.239921 344.960446,149.610324 Z" id="path4428-7-3-copy-2" stroke="#000000" stroke-width="2.7731958" fill="url(#radialGradient-3)" fill-rule="nonzero"></path>
            <rect id="rect4379-7-3-1" stroke="#000000" stroke-width="2.773" fill="url(#radialGradient-4)" fill-rule="nonzero" x="279.272597" y="35.014548" width="34.285713" height="34.285713"></rect>
            <path d="M361.916274,51.5390745 C361.91805,57.9094773 358.520501,63.7967324 353.003867,66.9824467 C347.487232,70.1681611 340.689945,70.1681611 335.17331,66.9824467 C329.656675,63.7967324 326.259126,57.9094773 326.260903,51.5390745 C326.259126,45.1686718 329.656675,39.2814166 335.17331,36.0957023 C340.689945,32.9099879 347.487232,32.9099879 353.003867,36.0957023 C358.520501,39.2814166 361.91805,45.1686718 361.916274,51.5390745 Z" id="path4428-7-5" stroke="#000000" stroke-width="2.7731958" fill="url(#radialGradient-5)" fill-rule="nonzero"></path>
            <path d="M417.089325,51.5390745 C417.091101,57.9094773 413.693552,63.7967324 408.176918,66.9824467 C402.660283,70.1681611 395.862996,70.1681611 390.346361,66.9824467 C384.829726,63.7967324 381.432177,57.9094773 381.433954,51.5390745 C381.432177,45.1686718 384.829726,39.2814166 390.346361,36.0957023 C395.862996,32.9099879 402.660283,32.9099879 408.176918,36.0957023 C413.693552,39.2814166 417.091101,45.1686718 417.089325,51.5390745 Z" id="path4428-7-5-9" stroke="#000000" stroke-width="2.7731958" fill="url(#radialGradient-6)" fill-rule="nonzero"></path>
            <path id="path3003-copy-2" d="M466.833333,250.677375 L73.008219,250.677375 L73.008219,248.395752 L466.833333,248.395752 L466.833333,241.832506 L481.833333,249.536564 L466.833333,257.240621 L466.833333,250.677375 Z" fill="#000000" fill-rule="nonzero"></path>
            <rect id="Rectangle" fill="#8E44AD" x="203.24314" y="230.776411" width="75.4688952" height="37.520306"></rect>
            <text id="true" font-family="Helvetica" font-size="20" font-weight="normal" fill="#FFFFFF">
                <tspan x="223.477587" y="256.536564">true</tspan>
            </text>
            <path d="M300.531303,239.493963 L300.531303,266.263003" id="path6773-1" stroke="#000000" stroke-width="2"></path>
        </g>
    </g>
</svg>