<?xml version="1.0" encoding="UTF-8"?>
<svg width="516px" height="287px" viewBox="0 0 516 287" version="1.1" xmlns="http://www.w3.org/2000/svg" xmlns:xlink="http://www.w3.org/1999/xlink">
    <!-- Generator: Sketch 55 (78076) - https://sketchapp.com -->
    <title>op_map</title>
    <desc>Created with Sketch.</desc>
    <defs>
        <radialGradient cx="36.2507156%" cy="27.4181659%" fx="36.2507156%" fy="27.4181659%" r="77.0742045%" gradientTransform="translate(0.362507,0.274182),scale(1.000000,0.999721),rotate(143.806919),translate(-0.362507,-0.274182)" id="radialGradient-1">
            <stop stop-color="#FFFFFF" offset="0%"></stop>
            <stop stop-color="#FF0000" offset="100%"></stop>
        </radialGradient>
        <radialGradient cx="36.2507156%" cy="27.4181659%" fx="36.2507156%" fy="27.4181659%" r="77.0742045%" gradientTransform="translate(0.362507,0.274182),scale(1.000000,0.999721),rotate(143.806919),translate(-0.362507,-0.274182)" id="radialGradient-2">
            <stop stop-color="#FFFFFF" offset="0%"></stop>
            <stop stop-color="#008000" offset="100%"></stop>
        </radialGradient>
        <radialGradient cx="36.2507156%" cy="27.4181659%" fx="36.2507156%" fy="27.4181659%" r="77.0742045%" gradientTransform="translate(0.362507,0.274182),scale(1.000000,0.999721),rotate(143.806919),translate(-0.362507,-0.274182)" id="radialGradient-3">
            <stop stop-color="#FFFFFF" offset="0%"></stop>
            <stop stop-color="#0000FF" offset="100%"></stop>
        </radialGradient>
        <radialGradient cx="36.2507156%" cy="27.4181659%" fx="36.2507156%" fy="27.4181659%" r="77.0742045%" gradientTransform="translate(0.362507,0.274182),scale(1.000000,0.999721),rotate(143.806919),translate(-0.362507,-0.274182)" id="radialGradient-4">
            <stop stop-color="#FFFFFF" offset="0%"></stop>
            <stop stop-color="#00FFFF" offset="100%"></stop>
        </radialGradient>
        <radialGradient cx="36.2507156%" cy="27.4181659%" fx="36.2507156%" fy="27.4181659%" r="77.0742045%" gradientTransform="translate(0.362507,0.274182),scale(1.000000,0.999721),rotate(143.806919),translate(-0.362507,-0.274182)" id="radialGradient-5">
            <stop stop-color="#FFFFFF" offset="0%"></stop>
            <stop stop-color="#FF00FF" offset="100%"></stop>
        </radialGradient>
        <radialGradient cx="36.2507156%" cy="27.4181659%" fx="36.2507156%" fy="27.4181659%" r="77.0742045%" gradientTransform="translate(0.362507,0.274182),scale(1.000000,0.999721),rotate(143.806919),translate(-0.362507,-0.274182)" id="radialGradient-6">
            <stop stop-color="#FFFFFF" offset="0%"></stop>
            <stop stop-color="#FFFF00" offset="100%"></stop>
        </radialGradient>
    </defs>
    <g id="Page-2" stroke="none" stroke-width="1" fill="none" fill-rule="evenodd">
        <g id="Artboard-Copy-17" transform="translate(-23.000000, -5.000000)">
            <path id="path3003-copy" d="M466.833333,53.2982161 L73.008219,53.2982161 L73.008219,51.0165929 L466.833333,51.0165929 L466.833333,44.4533467 L481.833333,52.1574045 L466.833333,59.8614623 L466.833333,53.2982161 Z" fill="#000000" fill-rule="nonzero"></path>
            <path d="M147.743139,52.1574045 C147.744915,58.5278073 144.347366,64.4150624 138.830732,67.6007767 C133.314097,70.7864911 126.51681,70.7864911 121.000175,67.6007767 C115.48354,64.4150624 112.085991,58.5278073 112.087768,52.1574045 C112.085991,45.7870018 115.48354,39.8997466 121.000175,36.7140323 C126.51681,33.5283179 133.314097,33.5283179 138.830732,36.7140323 C144.347366,39.8997466 147.744915,45.7870018 147.743139,52.1574045 Z" id="path4428-copy-2" stroke="#000000" stroke-width="2.7731958" fill="url(#radialGradient-1)" fill-rule="nonzero"></path>
            <path d="M129.915453,69.9900625 L129.194073,118.747423" id="path5986-7-59" stroke="#000000" stroke-width="1.93039834" stroke-dasharray="5.7911949,5.7911949"></path>
            <path d="M185.199819,69.3717325 L184.478439,118.129093" id="path5986-7-59-copy" stroke="#000000" stroke-width="1.93039834" stroke-dasharray="5.7911949,5.7911949"></path>
            <path d="M240.86069,69.9900625 L240.13931,118.747423" id="path5986-7-59-copy-2" stroke="#000000" stroke-width="1.93039834" stroke-dasharray="5.7911949,5.7911949"></path>
            <path d="M296.415453,70.6083925 L295.694073,119.365753" id="path5986-7-59-copy-8" stroke="#000000" stroke-width="1.93039834" stroke-dasharray="5.7911949,5.7911949"></path>
            <path d="M344.088588,70.6083925 L343.367208,119.365753" id="path5986-7-59-copy-7" stroke="#000000" stroke-width="1.93039834" stroke-dasharray="5.7911949,5.7911949"></path>
            <path d="M399.983019,70.6083925 L399.261639,119.365753" id="path5986-7-59-copy-6" stroke="#000000" stroke-width="1.93039834" stroke-dasharray="5.7911949,5.7911949"></path>
            <rect id="rect4418" stroke="#000000" stroke-width="2.026" fill="#FFFFFF" fill-rule="nonzero" x="70.8983132" y="120.602413" width="394" height="58.015823"></rect>
            <text id="map-{" fill="#000000" font-family="Helvetica" font-size="20" font-weight="normal">
                <tspan x="194.587767" y="155.580081">map { </tspan>
            </text>
            <text id="}" fill="#000000" font-family="Helvetica" font-size="20" font-weight="normal">
                <tspan x="319.260902" y="155.580081">}</tspan>
            </text>
            <path d="M203.243139,52.1574045 C203.244915,58.5278073 199.847366,64.4150624 194.330732,67.6007767 C188.814097,70.7864911 182.01681,70.7864911 176.500175,67.6007767 C170.98354,64.4150624 167.585991,58.5278073 167.587768,52.1574045 C167.585991,45.7870018 170.98354,39.8997466 176.500175,36.7140323 C182.01681,33.5283179 188.814097,33.5283179 194.330732,36.7140323 C199.847366,39.8997466 203.244915,45.7870018 203.243139,52.1574045 Z" id="path4428-7-copy" stroke="#000000" stroke-width="2.7731958" fill="url(#radialGradient-2)" fill-rule="nonzero"></path>
            <path d="M258.743139,52.1574045 C258.744915,58.5278073 255.347366,64.4150624 249.830732,67.6007767 C244.314097,70.7864911 237.51681,70.7864911 232.000175,67.6007767 C226.48354,64.4150624 223.085991,58.5278073 223.087768,52.1574045 C223.085991,45.7870018 226.48354,39.8997466 232.000175,36.7140323 C237.51681,33.5283179 244.314097,33.5283179 249.830732,36.7140323 C255.347366,39.8997466 258.744915,45.7870018 258.743139,52.1574045 Z" id="path4428-7-3-copy" stroke="#000000" stroke-width="2.7731958" fill="url(#radialGradient-3)" fill-rule="nonzero"></path>
            <path d="M361.916274,51.5390745 C361.91805,57.9094773 358.520501,63.7967324 353.003867,66.9824467 C347.487232,70.1681611 340.689945,70.1681611 335.17331,66.9824467 C329.656675,63.7967324 326.259126,57.9094773 326.260903,51.5390745 C326.259126,45.1686718 329.656675,39.2814166 335.17331,36.0957023 C340.689945,32.9099879 347.487232,32.9099879 353.003867,36.0957023 C358.520501,39.2814166 361.91805,45.1686718 361.916274,51.5390745 Z" id="path4428-7-5" stroke="#000000" stroke-width="2.7731958" fill="url(#radialGradient-4)" fill-rule="nonzero"></path>
            <path d="M417.089325,51.5390745 C417.091101,57.9094773 413.693552,63.7967324 408.176918,66.9824467 C402.660283,70.1681611 395.862996,70.1681611 390.346361,66.9824467 C384.829726,63.7967324 381.432177,57.9094773 381.433954,51.5390745 C381.432177,45.1686718 384.829726,39.2814166 390.346361,36.0957023 C395.862996,32.9099879 402.660283,32.9099879 408.176918,36.0957023 C413.693552,39.2814166 417.091101,45.1686718 417.089325,51.5390745 Z" id="path4428-7-5-9" stroke="#000000" stroke-width="2.7731958" fill="url(#radialGradient-5)" fill-rule="nonzero"></path>
            <path d="M314.243139,52.1574045 C314.244915,58.5278073 310.847366,64.4150624 305.330732,67.6007767 C299.814097,70.7864911 293.01681,70.7864911 287.500175,67.6007767 C281.98354,64.4150624 278.585991,58.5278073 278.587768,52.1574045 C278.585991,45.7870018 281.98354,39.8997466 287.500175,36.7140323 C293.01681,33.5283179 299.814097,33.5283179 305.330732,36.7140323 C310.847366,39.8997466 314.244915,45.7870018 314.243139,52.1574045 Z" id="path4428-7-5-4" stroke="#000000" stroke-width="2.7731958" fill="url(#radialGradient-6)" fill-rule="nonzero"></path>
            <path d="M299.743223,148.580081 C299.744999,154.950483 296.34745,160.837738 290.830816,164.023453 C285.314181,167.209167 278.516894,167.209167 273.000259,164.023453 C267.483624,160.837738 264.086075,154.950483 264.087852,148.580081 C264.086075,142.209678 267.483624,136.322423 273.000259,133.136708 C278.516894,129.950994 285.314181,129.950994 290.830816,133.136708 C296.34745,136.322423 299.744999,142.209678 299.743223,148.580081 Z" id="path4428-7-5-4-copy-2" stroke="#000000" stroke-width="2.7731958" fill="url(#radialGradient-6)" fill-rule="nonzero"></path>
            <path d="M240.13931,179.854896 L239.41793,228.612256" id="path5986-7-59-copy-3" stroke="#000000" stroke-width="1.93039834" stroke-dasharray="5.7911949,5.7911949"></path>
            <path d="M186.136833,179.236566 L185.415453,227.993926" id="path5986-7-59-copy-5" stroke="#000000" stroke-width="1.93039834" stroke-dasharray="5.7911949,5.7911949"></path>
            <path d="M129.194073,179.236566 L128.472693,227.993926" id="path5986-7-59-copy-4" stroke="#000000" stroke-width="1.93039834" stroke-dasharray="5.7911949,5.7911949"></path>
            <path d="M295.694073,180.473226 L294.972693,229.230586" id="path5986-7-59-copy-11" stroke="#000000" stroke-width="1.93039834" stroke-dasharray="5.7911949,5.7911949"></path>
            <path d="M343.367208,180.473226 L342.645828,229.230586" id="path5986-7-59-copy-10" stroke="#000000" stroke-width="1.93039834" stroke-dasharray="5.7911949,5.7911949"></path>
            <path d="M399.261639,180.473226 L398.540259,229.230586" id="path5986-7-59-copy-9" stroke="#000000" stroke-width="1.93039834" stroke-dasharray="5.7911949,5.7911949"></path>
            <path id="path3003-copy" d="M466.833333,248.204055 L73.008219,248.204055 L73.008219,245.922432 L466.833333,245.922432 L466.833333,239.359186 L481.833333,247.063244 L466.833333,254.767301 L466.833333,248.204055 Z" fill="#000000" fill-rule="nonzero"></path>
            <path d="M314.243139,247.063244 C314.244915,253.433646 310.847366,259.320901 305.330732,262.506616 C299.814097,265.69233 293.01681,265.69233 287.500175,262.506616 C281.98354,259.320901 278.585991,253.433646 278.587768,247.063244 C278.585991,240.692841 281.98354,234.805586 287.500175,231.619871 C293.01681,228.434157 299.814097,228.434157 305.330732,231.619871 C310.847366,234.805586 314.244915,240.692841 314.243139,247.063244 Z" id="path4428-7-5-4" stroke="#000000" stroke-width="2.7731958" fill="url(#radialGradient-6)" fill-rule="nonzero"></path>
            <path d="M258.688375,247.681574 C258.690152,254.051976 255.292603,259.939231 249.775968,263.124946 C244.259334,266.31066 237.462046,266.31066 231.945412,263.124946 C226.428777,259.939231 223.031228,254.051976 223.033005,247.681574 C223.031228,241.311171 226.428777,235.423916 231.945412,232.238201 C237.462046,229.052487 244.259334,229.052487 249.775968,232.238201 C255.292603,235.423916 258.690152,241.311171 258.688375,247.681574 Z" id="path4428-7-5-4-copy-4" stroke="#000000" stroke-width="2.7731958" fill="url(#radialGradient-6)" fill-rule="nonzero"></path>
            <path d="M203.603829,247.681574 C203.605605,254.051976 200.208056,259.939231 194.691422,263.124946 C189.174787,266.31066 182.3775,266.31066 176.860865,263.124946 C171.34423,259.939231 167.946681,254.051976 167.948458,247.681574 C167.946681,241.311171 171.34423,235.423916 176.860865,232.238201 C182.3775,229.052487 189.174787,229.052487 194.691422,232.238201 C200.208056,235.423916 203.605605,241.311171 203.603829,247.681574 Z" id="path4428-7-5-4-copy-5" stroke="#000000" stroke-width="2.7731958" fill="url(#radialGradient-6)" fill-rule="nonzero"></path>
            <path d="M147.743139,247.681574 C147.744915,254.051976 144.347366,259.939231 138.830732,263.124946 C133.314097,266.31066 126.51681,266.31066 121.000175,263.124946 C115.48354,259.939231 112.085991,254.051976 112.087768,247.681574 C112.085991,241.311171 115.48354,235.423916 121.000175,232.238201 C126.51681,229.052487 133.314097,229.052487 138.830732,232.238201 C144.347366,235.423916 147.744915,241.311171 147.743139,247.681574 Z" id="path4428-7-5-4-copy-6" stroke="#000000" stroke-width="2.7731958" fill="url(#radialGradient-6)" fill-rule="nonzero"></path>
            <path d="M361.916274,247.681574 C361.91805,254.051976 358.520501,259.939231 353.003867,263.124946 C347.487232,266.31066 340.689945,266.31066 335.17331,263.124946 C329.656675,259.939231 326.259126,254.051976 326.260903,247.681574 C326.259126,241.311171 329.656675,235.423916 335.17331,232.238201 C340.689945,229.052487 347.487232,229.052487 353.003867,232.238201 C358.520501,235.423916 361.91805,241.311171 361.916274,247.681574 Z" id="path4428-7-5-4-copy" stroke="#000000" stroke-width="2.7731958" fill="url(#radialGradient-6)" fill-rule="nonzero"></path>
            <path d="M416.367945,245.826584 C416.369721,252.196986 412.972172,258.084241 407.455538,261.269956 C401.938903,264.45567 395.141616,264.45567 389.624981,261.269956 C384.108346,258.084241 380.710797,252.196986 380.712574,245.826584 C380.710797,239.456181 384.108346,233.568926 389.624981,230.383211 C395.141616,227.197497 401.938903,227.197497 407.455538,230.383211 C412.972172,233.568926 416.369721,239.456181 416.367945,245.826584 Z" id="path4428-7-5-4-copy-3" stroke="#000000" stroke-width="2.7731958" fill="url(#radialGradient-6)" fill-rule="nonzero"></path>
        </g>
    </g>
</svg>