<?xml version="1.0" encoding="UTF-8"?>
<svg width="518px" height="296px" viewBox="0 0 518 296" version="1.1" xmlns="http://www.w3.org/2000/svg" xmlns:xlink="http://www.w3.org/1999/xlink">
    <!-- Generator: Sketch 55 (78076) - https://sketchapp.com -->
    <title>op_removeduplicates</title>
    <desc>Created with Sketch.</desc>
    <defs>
        <radialGradient cx="36.2507156%" cy="27.4181659%" fx="36.2507156%" fy="27.4181659%" r="77.0742045%" gradientTransform="translate(0.362507,0.274182),scale(1.000000,0.999721),rotate(143.806919),translate(-0.362507,-0.274182)" id="radialGradient-1">
            <stop stop-color="#FFFFFF" offset="0%"></stop>
            <stop stop-color="#FF0000" offset="100%"></stop>
        </radialGradient>
        <radialGradient cx="36.2507156%" cy="27.4181659%" fx="36.2507156%" fy="27.4181659%" r="77.0742045%" gradientTransform="translate(0.362507,0.274182),scale(1.000000,0.999721),rotate(143.806919),translate(-0.362507,-0.274182)" id="radialGradient-2">
            <stop stop-color="#FFFFFF" offset="0%"></stop>
            <stop stop-color="#008000" offset="100%"></stop>
        </radialGradient>
        <radialGradient cx="36.2507156%" cy="27.4181659%" fx="36.2507156%" fy="27.4181659%" r="77.0742045%" gradientTransform="translate(0.362507,0.274182),scale(1.000000,0.999721),rotate(143.806919),translate(-0.362507,-0.274182)" id="radialGradient-3">
            <stop stop-color="#FFFFFF" offset="0%"></stop>
            <stop stop-color="#0000FF" offset="100%"></stop>
        </radialGradient>
        <radialGradient cx="36.2507156%" cy="27.4181659%" fx="36.2507156%" fy="27.4181659%" r="77.0742045%" gradientTransform="translate(0.362507,0.274182),scale(1.000000,0.999721),rotate(143.806919),translate(-0.362507,-0.274182)" id="radialGradient-4">
            <stop stop-color="#FFFFFF" offset="0%"></stop>
            <stop stop-color="#FF00FF" offset="100%"></stop>
        </radialGradient>
    </defs>
    <g id="Page-2" stroke="none" stroke-width="1" fill="none" fill-rule="evenodd">
        <g id="Artboard-Copy-14" transform="translate(-24.000000, -5.000000)">
            <path id="path3003-copy" d="M466.833333,53.2982161 L73.008219,53.2982161 L73.008219,51.0165929 L466.833333,51.0165929 L466.833333,44.4533467 L481.833333,52.1574045 L466.833333,59.8614623 L466.833333,53.2982161 Z" fill="#000000" fill-rule="nonzero"></path>
            <path d="M147.743139,52.1574045 C147.744915,58.5278073 144.347366,64.4150624 138.830732,67.6007767 C133.314097,70.7864911 126.51681,70.7864911 121.000175,67.6007767 C115.48354,64.4150624 112.085991,58.5278073 112.087768,52.1574045 C112.085991,45.7870018 115.48354,39.8997466 121.000175,36.7140323 C126.51681,33.5283179 133.314097,33.5283179 138.830732,36.7140323 C144.347366,39.8997466 147.744915,45.7870018 147.743139,52.1574045 Z" id="path4428-copy-2" stroke="#000000" stroke-width="2.7731958" fill="url(#radialGradient-1)" fill-rule="nonzero"></path>
            <path d="M129.915453,69.9900625 L129.194073,118.747423" id="path5986-7-59" stroke="#000000" stroke-width="1.93039834" stroke-dasharray="5.7911949,5.7911949"></path>
            <path d="M130.636833,178.618236 L129.915453,227.375596" id="path5986-7-59-copy-4" stroke="#000000" stroke-width="1.93039834" stroke-dasharray="5.7911949,5.7911949"></path>
            <path d="M185.199819,69.3717325 L184.478439,118.129093" id="path5986-7-59-copy" stroke="#000000" stroke-width="1.93039834" stroke-dasharray="5.7911949,5.7911949"></path>
            <path d="M185.776143,179.854896 L185.054763,228.612256" id="path5986-7-59-copy-5" stroke="#000000" stroke-width="1.93039834" stroke-dasharray="5.7911949,5.7911949"></path>
            <path d="M240.86069,69.9900625 L240.13931,118.747423" id="path5986-7-59-copy-2" stroke="#000000" stroke-width="1.93039834" stroke-dasharray="5.7911949,5.7911949"></path>
            <path d="M296.415453,70.6083925 L295.694073,119.365753" id="path5986-7-59-copy-8" stroke="#000000" stroke-width="1.93039834" stroke-dasharray="5.7911949,5.7911949"></path>
            <path d="M344.088588,70.6083925 L343.367208,119.365753" id="path5986-7-59-copy-7" stroke="#000000" stroke-width="1.93039834" stroke-dasharray="5.7911949,5.7911949"></path>
            <path d="M399.983019,70.6083925 L399.261639,119.365753" id="path5986-7-59-copy-6" stroke="#000000" stroke-width="1.93039834" stroke-dasharray="5.7911949,5.7911949"></path>
            <rect id="rect4418" stroke="#000000" stroke-width="2.026" fill="#FFFFFF" fill-rule="nonzero" x="70.8983132" y="120.602413" width="394" height="58.015823"></rect>
            <text id="removeDuplicates" fill="#000000" font-family="Helvetica" font-size="20" font-weight="normal">
                <tspan x="178.24314" y="157.022238">removeDuplicates</tspan>
            </text>
            <path d="M203.243139,52.1574045 C203.244915,58.5278073 199.847366,64.4150624 194.330732,67.6007767 C188.814097,70.7864911 182.01681,70.7864911 176.500175,67.6007767 C170.98354,64.4150624 167.585991,58.5278073 167.587768,52.1574045 C167.585991,45.7870018 170.98354,39.8997466 176.500175,36.7140323 C182.01681,33.5283179 188.814097,33.5283179 194.330732,36.7140323 C199.847366,39.8997466 203.244915,45.7870018 203.243139,52.1574045 Z" id="path4428-7-copy" stroke="#000000" stroke-width="2.7731958" fill="url(#radialGradient-2)" fill-rule="nonzero"></path>
            <path d="M312.659481,52.7757345 C312.661258,59.1461373 309.263709,65.0333924 303.747074,68.2191067 C298.230439,71.4048211 291.433152,71.4048211 285.916517,68.2191067 C280.399883,65.0333924 277.002334,59.1461373 277.00411,52.7757345 C277.002334,46.4053318 280.399883,40.5180766 285.916517,37.3323623 C291.433152,34.1466479 298.230439,34.1466479 303.747074,37.3323623 C309.263709,40.5180766 312.661258,46.4053318 312.659481,52.7757345 Z" id="path4428-7-copy-2" stroke="#000000" stroke-width="2.7731958" fill="url(#radialGradient-2)" fill-rule="nonzero"></path>
            <path d="M258.743139,52.1574045 C258.744915,58.5278073 255.347366,64.4150624 249.830732,67.6007767 C244.314097,70.7864911 237.51681,70.7864911 232.000175,67.6007767 C226.48354,64.4150624 223.085991,58.5278073 223.087768,52.1574045 C223.085991,45.7870018 226.48354,39.8997466 232.000175,36.7140323 C237.51681,33.5283179 244.314097,33.5283179 249.830732,36.7140323 C255.347366,39.8997466 258.744915,45.7870018 258.743139,52.1574045 Z" id="path4428-7-3-copy" stroke="#000000" stroke-width="2.7731958" fill="url(#radialGradient-3)" fill-rule="nonzero"></path>
            <path d="M361.916274,51.5390745 C361.91805,57.9094773 358.520501,63.7967324 353.003867,66.9824467 C347.487232,70.1681611 340.689945,70.1681611 335.17331,66.9824467 C329.656675,63.7967324 326.259126,57.9094773 326.260903,51.5390745 C326.259126,45.1686718 329.656675,39.2814166 335.17331,36.0957023 C340.689945,32.9099879 347.487232,32.9099879 353.003867,36.0957023 C358.520501,39.2814166 361.91805,45.1686718 361.916274,51.5390745 Z" id="path4428-7-3-copy-3" stroke="#000000" stroke-width="2.7731958" fill="url(#radialGradient-3)" fill-rule="nonzero"></path>
            <path d="M417.089325,51.5390745 C417.091101,57.9094773 413.693552,63.7967324 408.176918,66.9824467 C402.660283,70.1681611 395.862996,70.1681611 390.346361,66.9824467 C384.829726,63.7967324 381.432177,57.9094773 381.433954,51.5390745 C381.432177,45.1686718 384.829726,39.2814166 390.346361,36.0957023 C395.862996,32.9099879 402.660283,32.9099879 408.176918,36.0957023 C413.693552,39.2814166 417.091101,45.1686718 417.089325,51.5390745 Z" id="path4428-7-5-9" stroke="#000000" stroke-width="2.7731958" fill="url(#radialGradient-4)" fill-rule="nonzero"></path>
            <path id="path3003-copy-2" d="M466.833333,250.677375 L73.008219,250.677375 L73.008219,248.395752 L466.833333,248.395752 L466.833333,241.832506 L481.833333,249.536564 L466.833333,257.240621 L466.833333,250.677375 Z" fill="#000000" fill-rule="nonzero"></path>
            <path d="M240.13931,179.854896 L239.41793,228.612256" id="path5986-7-59-copy-3" stroke="#000000" stroke-width="1.93039834" stroke-dasharray="5.7911949,5.7911949"></path>
            <path d="M399.261639,180.473226 L398.540259,229.230586" id="path5986-7-59-copy-9" stroke="#000000" stroke-width="1.93039834" stroke-dasharray="5.7911949,5.7911949"></path>
            <path d="M258.743139,249.536564 C258.744915,255.906966 255.347366,261.794221 249.830732,264.979936 C244.314097,268.16565 237.51681,268.16565 232.000175,264.979936 C226.48354,261.794221 223.085991,255.906966 223.087768,249.536564 C223.085991,243.166161 226.48354,237.278906 232.000175,234.093191 C237.51681,230.907477 244.314097,230.907477 249.830732,234.093191 C255.347366,237.278906 258.744915,243.166161 258.743139,249.536564 Z" id="path4428-7-3-copy-2" stroke="#000000" stroke-width="2.7731958" fill="url(#radialGradient-3)" fill-rule="nonzero"></path>
            <path d="M417.089325,248.918234 C417.091101,255.288636 413.693552,261.175891 408.176918,264.361606 C402.660283,267.54732 395.862996,267.54732 390.346361,264.361606 C384.829726,261.175891 381.432177,255.288636 381.433954,248.918234 C381.432177,242.547831 384.829726,236.660576 390.346361,233.474861 C395.862996,230.289147 402.660283,230.289147 408.176918,233.474861 C413.693552,236.660576 417.091101,242.547831 417.089325,248.918234 Z" id="path4428-7-5-9-copy" stroke="#000000" stroke-width="2.7731958" fill="url(#radialGradient-4)" fill-rule="nonzero"></path>
            <path d="M146.572564,246.444914 C146.574341,252.815316 143.176792,258.702571 137.660157,261.888286 C132.143523,265.074 125.346235,265.074 119.829601,261.888286 C114.312966,258.702571 110.915417,252.815316 110.917194,246.444914 C110.915417,240.074511 114.312966,234.187256 119.829601,231.001541 C125.346235,227.815827 132.143523,227.815827 137.660157,231.001541 C143.176792,234.187256 146.574341,240.074511 146.572564,246.444914 Z" id="path4428-copy-3" stroke="#000000" stroke-width="2.7731958" fill="url(#radialGradient-1)" fill-rule="nonzero"></path>
            <path d="M202.072564,246.444914 C202.074341,252.815316 198.676792,258.702571 193.160157,261.888286 C187.643523,265.074 180.846235,265.074 175.329601,261.888286 C169.812966,258.702571 166.415417,252.815316 166.417194,246.444914 C166.415417,240.074511 169.812966,234.187256 175.329601,231.001541 C180.846235,227.815827 187.643523,227.815827 193.160157,231.001541 C198.676792,234.187256 202.074341,240.074511 202.072564,246.444914 Z" id="path4428-7-copy-3" stroke="#000000" stroke-width="2.7731958" fill="url(#radialGradient-2)" fill-rule="nonzero"></path>
        </g>
    </g>
</svg>