<?xml version="1.0" encoding="UTF-8"?>
<svg width="518px" height="296px" viewBox="0 0 518 296" version="1.1" xmlns="http://www.w3.org/2000/svg" xmlns:xlink="http://www.w3.org/1999/xlink">
    <!-- Generator: Sketch 55 (78076) - https://sketchapp.com -->
    <title>op_scan</title>
    <desc>Created with Sketch.</desc>
    <defs>
        <radialGradient cx="36.2507156%" cy="27.4181659%" fx="36.2507156%" fy="27.4181659%" r="77.0742045%" gradientTransform="translate(0.362507,0.274182),scale(1.000000,0.999721),rotate(143.806919),translate(-0.362507,-0.274182)" id="radialGradient-1">
            <stop stop-color="#FFFFFF" offset="0%"></stop>
            <stop stop-color="#FF0000" offset="100%"></stop>
        </radialGradient>
        <radialGradient cx="36.2507156%" cy="27.4181659%" fx="36.2507156%" fy="27.4181659%" r="77.0742045%" gradientTransform="translate(0.362507,0.274182),scale(1.000000,0.999721),rotate(143.806919),translate(-0.362507,-0.274182)" id="radialGradient-2">
            <stop stop-color="#FFFFFF" offset="0%"></stop>
            <stop stop-color="#008000" offset="100%"></stop>
        </radialGradient>
        <radialGradient cx="36.2507156%" cy="27.4181659%" fx="36.2507156%" fy="27.4181659%" r="77.0742045%" gradientTransform="translate(0.362507,0.274182),scale(1.000000,0.999721),rotate(143.806919),translate(-0.362507,-0.274182)" id="radialGradient-3">
            <stop stop-color="#FFFFFF" offset="0%"></stop>
            <stop stop-color="#0000FF" offset="100%"></stop>
        </radialGradient>
        <radialGradient cx="36.2507156%" cy="27.4181659%" fx="36.2507156%" fy="27.4181659%" r="77.0742045%" gradientTransform="translate(0.362507,0.274182),scale(1.000000,0.999721),rotate(143.806919),translate(-0.362507,-0.274182)" id="radialGradient-4">
            <stop stop-color="#FFFFFF" offset="0%"></stop>
            <stop stop-color="#00FFFF" offset="100%"></stop>
        </radialGradient>
        <radialGradient cx="36.2507156%" cy="27.4181659%" fx="36.2507156%" fy="27.4181659%" r="77.0742045%" gradientTransform="translate(0.362507,0.274182),scale(1.000000,0.999721),rotate(143.806919),translate(-0.362507,-0.274182)" id="radialGradient-5">
            <stop stop-color="#FFFFFF" offset="0%"></stop>
            <stop stop-color="#FF00FF" offset="100%"></stop>
        </radialGradient>
        <radialGradient cx="36.2507156%" cy="27.4181659%" fx="36.2507156%" fy="27.4181659%" r="77.0742045%" gradientTransform="translate(0.362507,0.274182),scale(1.000000,0.999721),rotate(143.806919),translate(-0.362507,-0.274182)" id="radialGradient-6">
            <stop stop-color="#FFFFFF" offset="0%"></stop>
            <stop stop-color="#FFFF00" offset="100%"></stop>
        </radialGradient>
    </defs>
    <g id="Page-2" stroke="none" stroke-width="1" fill="none" fill-rule="evenodd">
        <g id="Artboard-Copy-19" transform="translate(-24.000000, -5.000000)">
            <path id="path3003-copy" d="M466.833333,53.2982161 L73.008219,53.2982161 L73.008219,51.0165929 L466.833333,51.0165929 L466.833333,44.4533467 L481.833333,52.1574045 L466.833333,59.8614623 L466.833333,53.2982161 Z" fill="#000000" fill-rule="nonzero"></path>
            <path d="M147.743139,52.1574045 C147.744915,58.5278073 144.347366,64.4150624 138.830732,67.6007767 C133.314097,70.7864911 126.51681,70.7864911 121.000175,67.6007767 C115.48354,64.4150624 112.085991,58.5278073 112.087768,52.1574045 C112.085991,45.7870018 115.48354,39.8997466 121.000175,36.7140323 C126.51681,33.5283179 133.314097,33.5283179 138.830732,36.7140323 C144.347366,39.8997466 147.744915,45.7870018 147.743139,52.1574045 Z" id="path4428-copy-2" stroke="#000000" stroke-width="2.7731958" fill="url(#radialGradient-1)" fill-rule="nonzero"></path>
            <text id="2" font-family="Helvetica" font-size="20" font-weight="normal" fill="#000000">
                <tspan x="124" y="58">2</tspan>
            </text>
            <path d="M129.915453,69.9900625 L129.194073,118.747423" id="path5986-7-59" stroke="#000000" stroke-width="1.93039834" stroke-dasharray="5.7911949,5.7911949"></path>
            <path d="M185.199819,69.3717325 L184.478439,118.129093" id="path5986-7-59-copy" stroke="#000000" stroke-width="1.93039834" stroke-dasharray="5.7911949,5.7911949"></path>
            <path d="M240.86069,69.9900625 L240.13931,118.747423" id="path5986-7-59-copy-2" stroke="#000000" stroke-width="1.93039834" stroke-dasharray="5.7911949,5.7911949"></path>
            <path d="M296.415453,70.6083925 L295.694073,119.365753" id="path5986-7-59-copy-8" stroke="#000000" stroke-width="1.93039834" stroke-dasharray="5.7911949,5.7911949"></path>
            <path d="M344.088588,70.6083925 L343.367208,119.365753" id="path5986-7-59-copy-7" stroke="#000000" stroke-width="1.93039834" stroke-dasharray="5.7911949,5.7911949"></path>
            <path d="M399.983019,70.6083925 L399.261639,119.365753" id="path5986-7-59-copy-6" stroke="#000000" stroke-width="1.93039834" stroke-dasharray="5.7911949,5.7911949"></path>
            <rect id="rect4418" stroke="#000000" stroke-width="2.026" fill="#FFFFFF" fill-rule="nonzero" x="70.8983132" y="120.602413" width="394" height="58.015823"></rect>
            <text id="scan(1)-{-$0-+-$1-}" fill="#000000" font-family="Helvetica" font-size="20" font-weight="normal">
                <tspan x="194.587767" y="155.580081">scan(1) { $0 + $1 } </tspan>
            </text>
            <path d="M203.243139,52.1574045 C203.244915,58.5278073 199.847366,64.4150624 194.330732,67.6007767 C188.814097,70.7864911 182.01681,70.7864911 176.500175,67.6007767 C170.98354,64.4150624 167.585991,58.5278073 167.587768,52.1574045 C167.585991,45.7870018 170.98354,39.8997466 176.500175,36.7140323 C182.01681,33.5283179 188.814097,33.5283179 194.330732,36.7140323 C199.847366,39.8997466 203.244915,45.7870018 203.243139,52.1574045 Z" id="path4428-7-copy" stroke="#000000" stroke-width="2.7731958" fill="url(#radialGradient-2)" fill-rule="nonzero"></path>
            <path d="M258.743139,52.1574045 C258.744915,58.5278073 255.347366,64.4150624 249.830732,67.6007767 C244.314097,70.7864911 237.51681,70.7864911 232.000175,67.6007767 C226.48354,64.4150624 223.085991,58.5278073 223.087768,52.1574045 C223.085991,45.7870018 226.48354,39.8997466 232.000175,36.7140323 C237.51681,33.5283179 244.314097,33.5283179 249.830732,36.7140323 C255.347366,39.8997466 258.744915,45.7870018 258.743139,52.1574045 Z" id="path4428-7-3-copy" stroke="#000000" stroke-width="2.7731958" fill="url(#radialGradient-3)" fill-rule="nonzero"></path>
            <path d="M361.916274,51.5390745 C361.91805,57.9094773 358.520501,63.7967324 353.003867,66.9824467 C347.487232,70.1681611 340.689945,70.1681611 335.17331,66.9824467 C329.656675,63.7967324 326.259126,57.9094773 326.260903,51.5390745 C326.259126,45.1686718 329.656675,39.2814166 335.17331,36.0957023 C340.689945,32.9099879 347.487232,32.9099879 353.003867,36.0957023 C358.520501,39.2814166 361.91805,45.1686718 361.916274,51.5390745 Z" id="path4428-7-5" stroke="#000000" stroke-width="2.7731958" fill="url(#radialGradient-4)" fill-rule="nonzero"></path>
            <path d="M417.089325,51.5390745 C417.091101,57.9094773 413.693552,63.7967324 408.176918,66.9824467 C402.660283,70.1681611 395.862996,70.1681611 390.346361,66.9824467 C384.829726,63.7967324 381.432177,57.9094773 381.433954,51.5390745 C381.432177,45.1686718 384.829726,39.2814166 390.346361,36.0957023 C395.862996,32.9099879 402.660283,32.9099879 408.176918,36.0957023 C413.693552,39.2814166 417.091101,45.1686718 417.089325,51.5390745 Z" id="path4428-7-5-9" stroke="#000000" stroke-width="2.7731958" fill="url(#radialGradient-5)" fill-rule="nonzero"></path>
            <path d="M314.243139,52.1574045 C314.244915,58.5278073 310.847366,64.4150624 305.330732,67.6007767 C299.814097,70.7864911 293.01681,70.7864911 287.500175,67.6007767 C281.98354,64.4150624 278.585991,58.5278073 278.587768,52.1574045 C278.585991,45.7870018 281.98354,39.8997466 287.500175,36.7140323 C293.01681,33.5283179 299.814097,33.5283179 305.330732,36.7140323 C310.847366,39.8997466 314.244915,45.7870018 314.243139,52.1574045 Z" id="path4428-7-5-4" stroke="#000000" stroke-width="2.7731958" fill="url(#radialGradient-6)" fill-rule="nonzero"></path>
            <path d="M240.13931,179.854896 L239.41793,228.612256" id="path5986-7-59-copy-3" stroke="#000000" stroke-width="1.93039834" stroke-dasharray="5.7911949,5.7911949"></path>
            <path d="M186.136833,179.236566 L185.415453,227.993926" id="path5986-7-59-copy-5" stroke="#000000" stroke-width="1.93039834" stroke-dasharray="5.7911949,5.7911949"></path>
            <path d="M129.194073,179.236566 L128.472693,227.993926" id="path5986-7-59-copy-4" stroke="#000000" stroke-width="1.93039834" stroke-dasharray="5.7911949,5.7911949"></path>
            <path d="M295.694073,180.473226 L294.972693,229.230586" id="path5986-7-59-copy-11" stroke="#000000" stroke-width="1.93039834" stroke-dasharray="5.7911949,5.7911949"></path>
            <path d="M343.367208,180.473226 L342.645828,229.230586" id="path5986-7-59-copy-10" stroke="#000000" stroke-width="1.93039834" stroke-dasharray="5.7911949,5.7911949"></path>
            <path d="M399.261639,180.473226 L398.540259,229.230586" id="path5986-7-59-copy-9" stroke="#000000" stroke-width="1.93039834" stroke-dasharray="5.7911949,5.7911949"></path>
            <text id="3" font-family="Helvetica" font-size="20" font-weight="normal" fill="#000000">
                <tspan x="180" y="58">3</tspan>
            </text>
            <text id="4" font-family="Helvetica" font-size="20" font-weight="normal" fill="#000000">
                <tspan x="235" y="58">4</tspan>
            </text>
            <text id="5" font-family="Helvetica" font-size="20" font-weight="normal" fill="#000000">
                <tspan x="291" y="58">5</tspan>
            </text>
            <text id="6" font-family="Helvetica" font-size="20" font-weight="normal" fill="#000000">
                <tspan x="339" y="58">6</tspan>
            </text>
            <text id="7" font-family="Helvetica" font-size="20" font-weight="normal" fill="#000000">
                <tspan x="395" y="58">7</tspan>
            </text>
            <path id="path3003-copy-2" d="M466.833333,247.585725 L73.008219,247.585725 L73.008219,245.304102 L466.833333,245.304102 L466.833333,238.740856 L481.833333,246.444914 L466.833333,254.148971 L466.833333,247.585725 Z" fill="#000000" fill-rule="nonzero"></path>
            <path d="M147.743139,246.444914 C147.744915,252.815316 144.347366,258.702571 138.830732,261.888286 C133.314097,265.074 126.51681,265.074 121.000175,261.888286 C115.48354,258.702571 112.085991,252.815316 112.087768,246.444914 C112.085991,240.074511 115.48354,234.187256 121.000175,231.001541 C126.51681,227.815827 133.314097,227.815827 138.830732,231.001541 C144.347366,234.187256 147.744915,240.074511 147.743139,246.444914 Z" id="path4428-copy-3" stroke="#000000" stroke-width="2.7731958" fill="url(#radialGradient-1)" fill-rule="nonzero"></path>
            <text id="3" font-family="Helvetica" font-size="20" font-weight="normal" fill="#000000">
                <tspan x="124" y="252.287509">3</tspan>
            </text>
            <path d="M203.243139,246.444914 C203.244915,252.815316 199.847366,258.702571 194.330732,261.888286 C188.814097,265.074 182.01681,265.074 176.500175,261.888286 C170.98354,258.702571 167.585991,252.815316 167.587768,246.444914 C167.585991,240.074511 170.98354,234.187256 176.500175,231.001541 C182.01681,227.815827 188.814097,227.815827 194.330732,231.001541 C199.847366,234.187256 203.244915,240.074511 203.243139,246.444914 Z" id="path4428-7-copy-2" stroke="#000000" stroke-width="2.7731958" fill="url(#radialGradient-2)" fill-rule="nonzero"></path>
            <path d="M258.743139,246.444914 C258.744915,252.815316 255.347366,258.702571 249.830732,261.888286 C244.314097,265.074 237.51681,265.074 232.000175,261.888286 C226.48354,258.702571 223.085991,252.815316 223.087768,246.444914 C223.085991,240.074511 226.48354,234.187256 232.000175,231.001541 C237.51681,227.815827 244.314097,227.815827 249.830732,231.001541 C255.347366,234.187256 258.744915,240.074511 258.743139,246.444914 Z" id="path4428-7-3-copy-2" stroke="#000000" stroke-width="2.7731958" fill="url(#radialGradient-3)" fill-rule="nonzero"></path>
            <path d="M361.916274,245.826584 C361.91805,252.196986 358.520501,258.084241 353.003867,261.269956 C347.487232,264.45567 340.689945,264.45567 335.17331,261.269956 C329.656675,258.084241 326.259126,252.196986 326.260903,245.826584 C326.259126,239.456181 329.656675,233.568926 335.17331,230.383211 C340.689945,227.197497 347.487232,227.197497 353.003867,230.383211 C358.520501,233.568926 361.91805,239.456181 361.916274,245.826584 Z" id="path4428-7-5-copy" stroke="#000000" stroke-width="2.7731958" fill="url(#radialGradient-4)" fill-rule="nonzero"></path>
            <path d="M417.089325,245.826584 C417.091101,252.196986 413.693552,258.084241 408.176918,261.269956 C402.660283,264.45567 395.862996,264.45567 390.346361,261.269956 C384.829726,258.084241 381.432177,252.196986 381.433954,245.826584 C381.432177,239.456181 384.829726,233.568926 390.346361,230.383211 C395.862996,227.197497 402.660283,227.197497 408.176918,230.383211 C413.693552,233.568926 417.091101,239.456181 417.089325,245.826584 Z" id="path4428-7-5-9-copy" stroke="#000000" stroke-width="2.7731958" fill="url(#radialGradient-5)" fill-rule="nonzero"></path>
            <path d="M314.243139,246.444914 C314.244915,252.815316 310.847366,258.702571 305.330732,261.888286 C299.814097,265.074 293.01681,265.074 287.500175,261.888286 C281.98354,258.702571 278.585991,252.815316 278.587768,246.444914 C278.585991,240.074511 281.98354,234.187256 287.500175,231.001541 C293.01681,227.815827 299.814097,227.815827 305.330732,231.001541 C310.847366,234.187256 314.244915,240.074511 314.243139,246.444914 Z" id="path4428-7-5-4-copy-2" stroke="#000000" stroke-width="2.7731958" fill="url(#radialGradient-6)" fill-rule="nonzero"></path>
            <text id="6" font-family="Helvetica" font-size="20" font-weight="normal" fill="#000000">
                <tspan x="180" y="252.287509">6</tspan>
            </text>
            <text id="10" font-family="Helvetica" font-size="20" font-weight="normal" fill="#000000">
                <tspan x="230" y="252.287509">10</tspan>
            </text>
            <text id="15" font-family="Helvetica" font-size="20" font-weight="normal" fill="#000000">
                <tspan x="285" y="252.287509">15</tspan>
            </text>
            <text id="21" font-family="Helvetica" font-size="20" font-weight="normal" fill="#000000">
                <tspan x="334" y="252.287509">21</tspan>
            </text>
            <text id="28" font-family="Helvetica" font-size="20" font-weight="normal" fill="#000000">
                <tspan x="390" y="252.287509">28</tspan>
            </text>
        </g>
    </g>
</svg>