<?xml version="1.0" encoding="UTF-8"?>
<svg width="654px" height="517px" viewBox="0 0 654 517" version="1.1" xmlns="http://www.w3.org/2000/svg" xmlns:xlink="http://www.w3.org/1999/xlink">
    <!-- Generator: Sketch 55 (78076) - https://sketchapp.com -->
    <title>scheduler</title>
    <desc>Created with Sketch.</desc>
    <defs>
        <radialGradient cx="36.2507156%" cy="27.4181659%" fx="36.2507156%" fy="27.4181659%" r="77.0742045%" gradientTransform="translate(0.362507,0.274182),scale(1.000000,0.999721),rotate(143.806919),translate(-0.362507,-0.274182)" id="radialGradient-1">
            <stop stop-color="#FFFFFF" offset="0%"></stop>
            <stop stop-color="#FF0000" offset="100%"></stop>
        </radialGradient>
        <radialGradient cx="36.2507156%" cy="27.4181659%" fx="36.2507156%" fy="27.4181659%" r="77.0742045%" gradientTransform="translate(0.362507,0.274182),scale(1.000000,0.999721),rotate(143.806919),translate(-0.362507,-0.274182)" id="radialGradient-2">
            <stop stop-color="#FFFFFF" offset="0%"></stop>
            <stop stop-color="#008000" offset="100%"></stop>
        </radialGradient>
        <radialGradient cx="36.2507156%" cy="27.4181659%" fx="36.2507156%" fy="27.4181659%" r="77.0742045%" gradientTransform="translate(0.362507,0.274182),scale(1.000000,0.999721),rotate(143.806919),translate(-0.362507,-0.274182)" id="radialGradient-3">
            <stop stop-color="#FFFFFF" offset="0%"></stop>
            <stop stop-color="#0000FF" offset="100%"></stop>
        </radialGradient>
    </defs>
    <g id="Page-2" stroke="none" stroke-width="1" fill="none" fill-rule="evenodd">
        <g id="Artboard-Copy-10" transform="translate(-13.000000, -11.000000)">
            <path id="path3003-copy" d="M514.790211,65.9734696 L168,65.9734696 L168,63.6918464 L514.790211,63.6918464 L514.790211,57.1286002 L529.790211,64.832658 L514.790211,72.5367158 L514.790211,65.9734696 Z" fill="#000000" fill-rule="nonzero"></path>
            <path d="M246.090689,64.832658 C246.092465,71.2030608 242.694916,77.0903159 237.178281,80.2760302 C231.661647,83.4617446 224.86436,83.4617446 219.347725,80.2760302 C213.83109,77.0903159 210.433541,71.2030608 210.435318,64.832658 C210.433541,58.4622553 213.83109,52.5750001 219.347725,49.3892858 C224.86436,46.2035714 231.661647,46.2035714 237.178281,49.3892858 C242.694916,52.5750001 246.092465,58.4622553 246.090689,64.832658 Z" id="path4428-copy-2" stroke="#000000" stroke-width="2.7731958" fill="url(#radialGradient-1)" fill-rule="nonzero"></path>
            <path d="M349.784563,64.832658 C349.78634,71.2030608 346.388791,77.0903159 340.872156,80.2760302 C335.355522,83.4617446 328.558234,83.4617446 323.0416,80.2760302 C317.524965,77.0903159 314.127416,71.2030608 314.129193,64.832658 C314.127416,58.4622553 317.524965,52.5750001 323.0416,49.3892858 C328.558234,46.2035714 335.355522,46.2035714 340.872156,49.3892858 C346.388791,52.5750001 349.78634,58.4622553 349.784563,64.832658 Z" id="path4428-7-copy" stroke="#000000" stroke-width="2.7731958" fill="url(#radialGradient-2)" fill-rule="nonzero"></path>
            <path d="M459.017961,66.059475 C459.019737,72.4298778 455.622188,78.3171329 450.105553,81.5028472 C444.588919,84.6885616 437.791632,84.6885616 432.274997,81.5028472 C426.758362,78.3171329 423.360813,72.4298778 423.36259,66.059475 C423.360813,59.6890723 426.758362,53.8018171 432.274997,50.6161028 C437.791632,47.4303884 444.588919,47.4303884 450.105553,50.6161028 C455.622188,53.8018171 459.019737,59.6890723 459.017961,66.059475 Z" id="path4428-7-3-copy" stroke="#000000" stroke-width="2.7731958" fill="url(#radialGradient-3)" fill-rule="nonzero"></path>
            <path id="path3003-copy-2" d="M516.096336,267.581337 L169.306125,267.581337 L169.306125,265.299713 L516.096336,265.299713 L516.096336,258.736467 L531.096336,266.440525 L516.096336,274.144583 L516.096336,267.581337 Z" fill="#8E44AD" fill-rule="nonzero"></path>
            <path d="M247.396814,266.440525 C247.39859,272.810928 244.001041,278.698183 238.484406,281.883897 C232.967772,285.069612 226.170485,285.069612 220.65385,281.883897 C215.137215,278.698183 211.739666,272.810928 211.741443,266.440525 C211.739666,260.070122 215.137215,254.182867 220.65385,250.997153 C226.170485,247.811438 232.967772,247.811438 238.484406,250.997153 C244.001041,254.182867 247.39859,260.070122 247.396814,266.440525 Z" id="path4428-copy-3" stroke="#000000" stroke-width="2.7731958" fill="url(#radialGradient-1)" fill-rule="nonzero"></path>
            <path d="M351.090689,266.440525 C351.092465,272.810928 347.694916,278.698183 342.178281,281.883897 C336.661647,285.069612 329.86436,285.069612 324.347725,281.883897 C318.83109,278.698183 315.433541,272.810928 315.435318,266.440525 C315.433541,260.070122 318.83109,254.182867 324.347725,250.997153 C329.86436,247.811438 336.661647,247.811438 342.178281,250.997153 C347.694916,254.182867 351.092465,260.070122 351.090689,266.440525 Z" id="path4428-7-copy-2" stroke="#000000" stroke-width="2.7731958" fill="url(#radialGradient-2)" fill-rule="nonzero"></path>
            <rect id="rect4418" stroke="#000000" stroke-width="2.026" fill="#FFFFFF" fill-rule="nonzero" x="152.784564" y="136" width="394" height="58.015823"></rect>
            <text id="subscribe(on:" fill="#000000" font-family="Helvetica" font-size="20" font-weight="normal">
                <tspan x="258.263003" y="172.007911">subscribe(on:</tspan>
            </text>
            <text id=")" fill="#000000" font-family="Helvetica" font-size="20" font-weight="normal">
                <tspan x="418.478439" y="172.007911">)</tspan>
            </text>
            <path d="M460.324086,267.667342 C460.325862,274.037745 456.928313,279.925 451.411679,283.110714 C445.895044,286.296429 439.097757,286.296429 433.581122,283.110714 C428.064487,279.925 424.666938,274.037745 424.668715,267.667342 C424.666938,261.296939 428.064487,255.409684 433.581122,252.22397 C439.097757,249.038255 445.895044,249.038255 451.411679,252.22397 C456.928313,255.409684 460.325862,261.296939 460.324086,267.667342 Z" id="path4428-7-3-copy-2" stroke="#000000" stroke-width="2.7731958" fill="url(#radialGradient-3)" fill-rule="nonzero"></path>
            <path d="M228.984383,83.770813 L228.263003,132.528173" id="path5986-7-59-copy-5" stroke="#000000" stroke-width="1.93039834" stroke-dasharray="5.7911949,5.7911949"></path>
            <path d="M332.678258,84.665316 L331.956878,133.422676" id="path5986-7-59-copy-4" stroke="#000000" stroke-width="1.93039834" stroke-dasharray="5.7911949,5.7911949"></path>
            <path d="M441.550965,85.24264 L440.829585,134" id="path5986-7-59-copy-3" stroke="#000000" stroke-width="1.93039834" stroke-dasharray="5.7911949,5.7911949"></path>
            <path d="M228.984383,194.593147 L228.263003,243.350507" id="path5986-7-59-copy-8" stroke="#8E44AD" stroke-width="1.93039834" stroke-dasharray="5.7911949,5.7911949"></path>
            <path d="M332.678258,195.48765 L331.956878,244.24501" id="path5986-7-59-copy-7" stroke="#8E44AD" stroke-width="1.93039834" stroke-dasharray="5.7911949,5.7911949"></path>
            <path d="M441.550965,196.064974 L440.829585,244.822334" id="path5986-7-59-copy-6" stroke="#8E44AD" stroke-width="1.93039834" stroke-dasharray="5.7911949,5.7911949"></path>
            <path d="M230.290508,286.02576 L229.569128,334.78312" id="path5986-7-59-copy-14" stroke="#8E44AD" stroke-width="1.93039834" stroke-dasharray="5.7911949,5.7911949"></path>
            <path d="M333.984383,286.920263 L333.263003,335.677623" id="path5986-7-59-copy-13" stroke="#8E44AD" stroke-width="1.93039834" stroke-dasharray="5.7911949,5.7911949"></path>
            <path d="M442.85709,287.497587 L442.13571,336.254947" id="path5986-7-59-copy-12" stroke="#8E44AD" stroke-width="1.93039834" stroke-dasharray="5.7911949,5.7911949"></path>
            <polygon id="Triangle" fill="#8E44AD" points="397.555786 156.662208 407.228638 176.007911 387.882935 176.007911"></polygon>
            <path id="path3003-copy-3" d="M516.096336,468.233221 L169.306125,468.233221 L169.306125,465.951598 L516.096336,465.951598 L516.096336,459.388352 L531.096336,467.092409 L516.096336,474.796467 L516.096336,468.233221 Z" fill="#D0021B" fill-rule="nonzero"></path>
            <path d="M247.396814,467.092409 C247.39859,473.462812 244.001041,479.350067 238.484406,482.535782 C232.967772,485.721496 226.170485,485.721496 220.65385,482.535782 C215.137215,479.350067 211.739666,473.462812 211.741443,467.092409 C211.739666,460.722007 215.137215,454.834751 220.65385,451.649037 C226.170485,448.463323 232.967772,448.463323 238.484406,451.649037 C244.001041,454.834751 247.39859,460.722007 247.396814,467.092409 Z" id="path4428-copy-4" stroke="#000000" stroke-width="2.7731958" fill="url(#radialGradient-1)" fill-rule="nonzero"></path>
            <path d="M351.090689,467.092409 C351.092465,473.462812 347.694916,479.350067 342.178281,482.535782 C336.661647,485.721496 329.86436,485.721496 324.347725,482.535782 C318.83109,479.350067 315.433541,473.462812 315.435318,467.092409 C315.433541,460.722007 318.83109,454.834751 324.347725,451.649037 C329.86436,448.463323 336.661647,448.463323 342.178281,451.649037 C347.694916,454.834751 351.092465,460.722007 351.090689,467.092409 Z" id="path4428-7-copy-3" stroke="#000000" stroke-width="2.7731958" fill="url(#radialGradient-2)" fill-rule="nonzero"></path>
            <rect id="rect4418-copy" stroke="#000000" stroke-width="2.026" fill="#FFFFFF" fill-rule="nonzero" x="152.784564" y="336.651884" width="394" height="58.015823"></rect>
            <text id="receiveOn(on:" fill="#000000" font-family="Helvetica" font-size="20" font-weight="normal">
                <tspan x="258.263003" y="372.659796">receiveOn(on:</tspan>
            </text>
            <text id=")-copy" fill="#000000" font-family="Helvetica" font-size="20" font-weight="normal">
                <tspan x="418.478439" y="372.659796">)</tspan>
            </text>
            <path d="M460.324086,468.319226 C460.325862,474.689629 456.928313,480.576884 451.411679,483.762599 C445.895044,486.948313 439.097757,486.948313 433.581122,483.762599 C428.064487,480.576884 424.666938,474.689629 424.668715,468.319226 C424.666938,461.948824 428.064487,456.061568 433.581122,452.875854 C439.097757,449.69014 445.895044,449.69014 451.411679,452.875854 C456.928313,456.061568 460.325862,461.948824 460.324086,468.319226 Z" id="path4428-7-3-copy-3" stroke="#000000" stroke-width="2.7731958" fill="url(#radialGradient-3)" fill-rule="nonzero"></path>
            <path d="M228.984383,395.245031 L228.263003,444.002391" id="path5986-7-59-copy-11" stroke="#D0021B" stroke-width="1.93039834" stroke-dasharray="5.7911949,5.7911949"></path>
            <path d="M332.678258,396.139534 L331.956878,444.896894" id="path5986-7-59-copy-10" stroke="#D0021B" stroke-width="1.93039834" stroke-dasharray="5.7911949,5.7911949"></path>
            <path d="M441.550965,396.716858 L440.829585,445.474218" id="path5986-7-59-copy-9" stroke="#D0021B" stroke-width="1.93039834" stroke-dasharray="5.7911949,5.7911949"></path>
            <polygon id="Triangle-Copy" fill="#D0021B" points="400.555786 357.314093 410.228638 376.659796 390.882935 376.659796"></polygon>
        </g>
    </g>
</svg>